<svg width="224" height="150" viewBox="0 0 224 150" fill="none" xmlns="http://www.w3.org/2000/svg">
<g clip-path="url(#clip0_2147_357)">
<path d="M25.8227 85.0995C22.547 85.0995 19.6894 84.5419 17.25 83.4268C15.3682 84.6116 14.4273 86.1101 14.4273 87.9222C14.4273 89.4556 15.1591 90.6404 16.6227 91.4768C18.0864 92.2435 19.9682 92.8359 22.2682 93.2541C24.6379 93.6722 27.1121 94.1253 29.6909 94.6132C32.2697 95.101 34.7091 95.798 37.0091 96.7041C39.3788 97.6101 41.2955 98.9344 42.7591 100.677C44.2227 102.35 44.9545 104.65 44.9545 107.577C44.9545 110.574 43.9439 113.501 41.9227 116.359C39.9015 119.286 36.9045 121.69 32.9318 123.572C28.9591 125.524 24.0455 126.5 18.1909 126.5C12.197 126.5 7.66667 125.524 4.6 123.572C1.53333 121.69 0 119.216 0 116.15C0 114.407 0.313636 112.909 0.940909 111.654C1.49849 110.469 2.54394 109.04 4.07727 107.368L10.9773 103.604V103.29C8.95606 102.593 7.24849 101.583 5.85455 100.259C4.5303 98.8647 3.86818 96.9132 3.86818 94.4041C3.86818 91.1283 5.15758 88.2359 7.73636 85.7268L14.5318 82.2768V81.7541C12.8591 80.4995 11.5697 78.9662 10.6636 77.1541C9.82727 75.2722 9.40909 73.251 9.40909 71.0904C9.40909 68.0238 10.3152 65.0965 12.1273 62.3086C13.9394 59.451 16.4136 57.151 19.55 55.4086C22.6864 53.5965 26.2409 52.6904 30.2136 52.6904C32.7227 52.6904 35.0924 53.0389 37.3227 53.7359H54.4682V58.3359H44.85L44.2227 58.8586C46.2439 61.1586 47.2546 63.8768 47.2546 67.0132C47.2546 69.8707 46.3833 72.6935 44.6409 75.4813C42.8985 78.2692 40.3894 80.5692 37.1136 82.3813C33.9076 84.1935 30.1439 85.0995 25.8227 85.0995ZM27.1818 80.8132C28.7848 80.8132 30.1788 80.0813 31.3636 78.6177C32.6182 77.1541 33.5939 75.3071 34.2909 73.0768C34.9879 70.7768 35.3364 68.3722 35.3364 65.8632C35.3364 62.9359 34.8485 60.7056 33.8727 59.1722C32.9667 57.5692 31.4682 56.7677 29.3773 56.7677C27.7045 56.7677 26.2409 57.4995 24.9864 58.9632C23.8015 60.3571 22.8606 62.2041 22.1636 64.5041C21.4667 66.7344 21.1182 69.1389 21.1182 71.7177C21.1182 74.5056 21.6061 76.7359 22.5818 78.4086C23.5576 80.0116 25.0909 80.8132 27.1818 80.8132ZM9.2 114.581C9.2 116.951 10.1061 118.937 11.9182 120.54C13.8 122.213 16.4833 123.05 19.9682 123.05C24.0106 123.05 27.1121 122.039 29.2727 120.018C31.4333 118.066 32.5136 115.836 32.5136 113.327C32.5136 111.445 31.9909 109.981 30.9455 108.936C29.9 107.96 28.5061 107.193 26.7636 106.636C25.0212 106.078 23.1045 105.66 21.0136 105.381C18.9924 105.103 16.9712 104.754 14.95 104.336C12.5803 105.8 11.0121 107.368 10.2455 109.04C9.54848 110.783 9.2 112.63 9.2 114.581Z" fill="#2D2D2D"/>
<path d="M64.369 102.454C60.8841 102.454 58.375 101.234 56.8417 98.795C55.3781 96.3556 55.0296 92.8359 55.7962 88.2359L65.7281 31.5722L57.7826 28.0177V26.7632L80.3644 22.9995H80.6781L69.1781 88.2359C68.6205 91.5116 69.2129 93.1495 70.9553 93.1495C72.0008 93.1495 73.0811 92.5919 74.1962 91.4768C75.3811 90.2919 76.6008 88.3404 77.8553 85.6222L79.8417 86.2495C77.8902 91.4071 75.6599 95.4147 73.1508 98.2723C70.6417 101.06 67.7144 102.454 64.369 102.454Z" fill="#2D2D2D"/>
<path d="M95.5325 102.454C92.1173 102.454 89.6431 101.234 88.1098 98.795C86.5764 96.3556 86.228 92.8359 87.0643 88.2359L91.8734 61.1586L84.5552 57.7086V56.4541L106.405 52.6904H106.719L100.446 88.2359C99.8189 91.5116 100.376 93.1495 102.119 93.1495C103.164 93.1495 104.279 92.5919 105.464 91.4768C106.649 90.2919 107.869 88.3404 109.123 85.6222L111.005 86.2495C109.054 91.4071 106.823 95.4147 104.314 98.2723C101.805 101.06 98.8779 102.454 95.5325 102.454Z" fill="#2D2D2D"/>
<path d="M116.21 101.409L123.214 61.2632L116.314 57.7086V56.4541L135.655 52.6904H135.969V62.9359H136.596C138.826 60.4268 140.778 58.4404 142.451 56.9768C144.193 55.4435 145.866 54.3632 147.469 53.7359C149.141 53.0389 151.093 52.6904 153.323 52.6904C156.947 52.6904 159.735 54.0844 161.687 56.8722C163.638 59.6601 164.196 63.4238 163.36 68.1632L159.805 88.2359C159.248 91.5116 159.84 93.1495 161.582 93.1495C162.628 93.1495 163.708 92.5919 164.823 91.4768C166.008 90.2919 167.228 88.3404 168.482 85.6222L170.469 86.2495C168.517 91.4071 166.287 95.4147 163.778 98.2723C161.269 101.06 158.341 102.454 154.996 102.454C151.511 102.454 149.002 101.234 147.469 98.795C145.935 96.3556 145.587 92.8359 146.423 88.2359L149.873 68.5813C150.222 66.6995 150.048 65.0616 149.351 63.6677C148.723 62.2041 147.329 61.4722 145.169 61.4722C143.426 61.4722 141.684 62.1692 139.941 63.5632C138.269 64.8874 136.735 66.3162 135.341 67.8495L129.696 101.409H116.21Z" fill="#2D2D2D"/>
<path d="M195.097 85.0995C191.821 85.0995 188.963 84.5419 186.524 83.4268C184.642 84.6116 183.701 86.1101 183.701 87.9222C183.701 89.4556 184.433 90.6404 185.897 91.4768C187.36 92.2435 189.242 92.8359 191.542 93.2541C193.912 93.6722 196.386 94.1253 198.965 94.6132C201.543 95.101 203.983 95.798 206.283 96.7041C208.653 97.6101 210.569 98.9344 212.033 100.677C213.497 102.35 214.228 104.65 214.228 107.577C214.228 110.574 213.218 113.501 211.197 116.359C209.175 119.286 206.178 121.69 202.206 123.572C198.233 125.524 193.319 126.5 187.465 126.5C181.471 126.5 176.94 125.524 173.874 123.572C170.807 121.69 169.274 119.216 169.274 116.15C169.274 114.407 169.587 112.909 170.215 111.654C170.772 110.469 171.818 109.04 173.351 107.368L180.251 103.604V103.29C178.23 102.593 176.522 101.583 175.128 100.259C173.804 98.8647 173.142 96.9132 173.142 94.4041C173.142 91.1283 174.431 88.2359 177.01 85.7268L183.806 82.2768V81.7541C182.133 80.4995 180.843 78.9662 179.937 77.1541C179.101 75.2722 178.683 73.251 178.683 71.0904C178.683 68.0238 179.589 65.0965 181.401 62.3086C183.213 59.451 185.687 57.151 188.824 55.4086C191.96 53.5965 195.515 52.6904 199.487 52.6904C201.997 52.6904 204.366 53.0389 206.597 53.7359H223.742V58.3359H214.124L213.497 58.8586C215.518 61.1586 216.528 63.8768 216.528 67.0132C216.528 69.8707 215.657 72.6935 213.915 75.4813C212.172 78.2692 209.663 80.5692 206.387 82.3813C203.181 84.1935 199.418 85.0995 195.097 85.0995ZM196.456 80.8132C198.059 80.8132 199.453 80.0813 200.637 78.6177C201.892 77.1541 202.868 75.3071 203.565 73.0768C204.262 70.7768 204.61 68.3722 204.61 65.8632C204.61 62.9359 204.122 60.7056 203.147 59.1722C202.24 57.5692 200.742 56.7677 198.651 56.7677C196.978 56.7677 195.515 57.4995 194.26 58.9632C193.075 60.3571 192.134 62.2041 191.437 64.5041C190.74 66.7344 190.392 69.1389 190.392 71.7177C190.392 74.5056 190.88 76.7359 191.856 78.4086C192.831 80.0116 194.365 80.8132 196.456 80.8132ZM178.474 114.581C178.474 116.951 179.38 118.937 181.192 120.54C183.074 122.213 185.757 123.05 189.242 123.05C193.284 123.05 196.386 122.039 198.547 120.018C200.707 118.066 201.787 115.836 201.787 113.327C201.787 111.445 201.265 109.981 200.219 108.936C199.174 107.96 197.78 107.193 196.037 106.636C194.295 106.078 192.378 105.66 190.287 105.381C188.266 105.103 186.245 104.754 184.224 104.336C181.854 105.8 180.286 107.368 179.519 109.04C178.822 110.783 178.474 112.63 178.474 114.581Z" fill="#2D2D2D"/>
<path d="M96.142 27.47C96.4127 27.0185 97.067 27.0185 97.3376 27.47L100.895 33.4042C100.954 33.5025 101.036 33.5847 101.134 33.6436L107.068 37.2006C107.52 37.4713 107.52 38.1256 107.068 38.3962L101.134 41.9532C101.036 42.0121 100.954 42.0944 100.895 42.1927L97.3376 48.1268C97.067 48.5784 96.4127 48.5784 96.142 48.1268L92.5851 42.1927C92.5261 42.0944 92.4439 42.0121 92.3456 41.9532L86.4114 38.3962C85.9599 38.1256 85.9599 37.4713 86.4114 37.2006L92.3456 33.6436C92.4439 33.5847 92.5261 33.5025 92.5851 33.4042L96.142 27.47Z" fill="#2D2D2D"/>
<path d="M107.917 24.9661C107.985 24.8532 108.149 24.8532 108.216 24.9661L109.35 26.8582C109.365 26.8828 109.386 26.9033 109.41 26.9181L111.302 28.0522C111.415 28.1199 111.415 28.2834 111.302 28.3511L109.41 29.4852C109.386 29.4999 109.365 29.5205 109.35 29.5451L108.216 31.4372C108.149 31.55 107.985 31.55 107.917 31.4372L106.783 29.5451C106.769 29.5205 106.748 29.4999 106.723 29.4852L104.831 28.3511C104.718 28.2834 104.718 28.1199 104.831 28.0522L106.723 26.9181C106.748 26.9033 106.769 26.8828 106.783 26.8582L107.917 24.9661Z" fill="#2D2D2D"/>
</g>
<defs>
<clipPath id="clip0_2147_357">
<rect width="223.742" height="149.5" fill="white"/>
</clipPath>
</defs>
</svg>
